<?xml version="1.0" standalone="no"?><!DOCTYPE svg PUBLIC "-//W3C//DTD SVG 1.1//EN" "http://www.w3.org/Graphics/SVG/1.1/DTD/svg11.dtd"><svg t="1543829382663" class="icon" style="" viewBox="0 0 1024 1024" version="1.1" xmlns="http://www.w3.org/2000/svg" p-id="5026" xmlns:xlink="http://www.w3.org/1999/xlink" width="300" height="300"><defs><style type="text/css"></style></defs><path d="M1008.980423 400.387993l-70.467935-57.855686C807.276539 234.789421 671.573857 123.377982 538.07333 13.860682c-4.129041-3.390213-8.721639-6.013971-13.276375-7.587815-3.463891-1.202385-6.978948-1.812275-10.451026-1.812275-10.711969 0-19.169595 5.761214-26.030863 11.397584C375.885438 108.224864 261.52483 202.098881 150.929989 292.880467l-80.633459 66.189492c-4.687766 3.846608-9.379625 7.689123-14.07353 11.528568l-0.13917 0.113587c-12.420891 10.1645-25.263383 20.674878-37.814234 31.16786-10.570753 8.832156-20.748556 21.336958-5.491061 39.777959 4.067642 4.924149 9.658987 7.634888 15.743566 7.634888 10.480702 0 19.117406-7.593955 27.472702-14.941294 2.009773-1.769296 3.90903-3.439332 5.64558-4.819772 1.693572-1.345648 3.356444-2.724041 5.018294-4.101411l24.112164-19.786649 0 74.164117C90.769818 613.983719 90.769818 748.161674 90.789261 882.352933c0.010233 7.511067 0.021489 16.024975 0.582261 24.493857 2.302439 34.984792 17.5804 64.088644 45.409213 86.501096 21.595854 17.375739 47.849798 26.187429 78.032214 26.187429 25.475208-0.016373 50.962695-0.020466 76.438926-0.020466l117.106138 0.011256 240.380766-0.014326c54.975079 0 109.944018 0.00614 164.92012 0.026606l0.12075 0c32.180933 0 59.841923-9.868765 82.216513-29.332049 27.997658-24.351618 42.184775-56.208163 42.164309-94.684476-0.057305-120.109542-0.046049-244.063645-0.036839-353.425402l0.00614-136.494721c9.234315 7.603165 19.570731 16.104793 29.652344 24.207331 1.428535 1.14815 2.968611 2.461051 4.613064 3.864004 8.727779 7.449669 17.753339 15.152095 28.392654 15.153118 6.575766 0 12.450567-3.062755 16.545838-8.626471C1032.450974 419.640476 1018.326279 408.05358 1008.980423 400.387993zM892.084063 826.327942l0.001023 73.336262c0 45.490054-35.528168 77.260641-86.396719 77.260641-39.056528 0-93.850481 0.007163-118.211309 0.010233l-0.010233-45.581128c-0.020466-85.256756-0.040932-173.417655 0.019443-256.906138 0.038886-41.724287-11.834536-78.398558-35.292807-109.0036-29.063943-37.905308-67.450205-60.433394-114.091478-66.956971-7.944949-1.110287-16.013719-1.673106-23.984251-1.673106-82.102926 0-153.169495 58.512648-168.979576 139.130757-2.226714 11.359722-3.368724 24.070208-3.39226 37.778418-0.185218 78.816067-0.167822 158.956292-0.149403 236.458433l0.002047 12.305257c0.004093 18.090007 0.007163 36.182061 0.008186 54.272068-24.50102 0.103354-81.945337 0.217964-123.240859 0.217964-44.083008 0-81.326237-37.10099-81.326237-81.015152 0-210.993458-0.035816-364.512924-0.122797-529.885346 0-0.212848 0.00307-0.378623 0.008186-0.50449 0.057305-0.049119 0.125867-0.106424 0.205685-0.171915 102.616122-84.111676 206.89614-169.718403 307.741943-252.504898l69.62473-57.154721c20.776186 17.048281 41.424458 33.999348 62.058404 50.937113l51.097772 41.951461c86.078471 70.676689 175.088714 143.760195 262.733866 215.516472 1.726318 1.412163 1.847068 1.673106 1.846044 3.990894C892.07997 526.671141 892.082016 672.226215 892.084063 826.327942zM390.553509 668.178015c0.062422-51.185776 37.983079-110.357434 101.334943-120.778784 6.002714-0.988514 12.144598-1.488911 18.254759-1.488911 59.086723 0 117.05088 48.15986 126.572744 105.163131 1.080611 6.482645 1.543146 12.249999 1.549286 19.287275 0.094144 86.689385 0.088004 165.523871 0.081864 248.986771l-0.00307 56.678884L390.534066 976.026382c-0.00307-20.644179-0.008186-41.060161-0.014326-61.34209l-0.00307-13.788028C390.49211 822.068941 390.469598 747.613182 390.553509 668.178015z" fill="#666666" p-id="5027"></path></svg>