<?xml version="1.0" standalone="no"?><!DOCTYPE svg PUBLIC "-//W3C//DTD SVG 1.1//EN" "http://www.w3.org/Graphics/SVG/1.1/DTD/svg11.dtd"><svg t="1543829445830" class="icon" style="" viewBox="0 0 1024 1024" version="1.1" xmlns="http://www.w3.org/2000/svg" p-id="5513" xmlns:xlink="http://www.w3.org/1999/xlink" width="300" height="300"><defs><style type="text/css"></style></defs><path d="M370.26304 785.02912H268.55424c-82.07872 0-148.61312-66.54976-148.61312-148.66432V250.6496c0-82.13504 66.58048-148.6592 148.8896-148.6592h486.33856c82.24256 0 148.89472 66.55488 148.89472 148.6592v385.7152c0 82.2016-66.4576 148.66432-148.85376 148.66432h-127.20128c-6.784 0-13.27104 2.7648-17.9712 7.66464l-133.38112 138.98752a24.9088 24.9088 0 0 0 35.9424 34.49856l133.38624-138.99264-17.9712 7.65952h127.19616c109.91616 0 198.67136-88.76544 198.67136-198.48192V250.6496c0-109.63456-88.97024-198.48192-198.71232-198.48192H268.83072c-109.81376 0-198.71232 88.81664-198.71232 198.48192v385.7152c0 109.62944 88.83712 198.48192 198.43584 198.48192h101.7088a24.91392 24.91392 0 0 0 0-49.8176z m-84.1216-409.0368h382.22336a24.9088 24.9088 0 1 0 0-49.8176H286.14144a24.9088 24.9088 0 1 0 0 49.8176z m0 155.68896h451.71712a24.9088 24.9088 0 1 0 0-49.8176H286.14144a24.9088 24.9088 0 1 0 0 49.8176z m0 0" fill="#666666" p-id="5514"></path></svg>