<?xml version="1.0" standalone="no"?><!DOCTYPE svg PUBLIC "-//W3C//DTD SVG 1.1//EN" "http://www.w3.org/Graphics/SVG/1.1/DTD/svg11.dtd"><svg t="1545374863433" class="icon" style="" viewBox="0 0 1024 1024" version="1.1" xmlns="http://www.w3.org/2000/svg" p-id="2948" xmlns:xlink="http://www.w3.org/1999/xlink" width="240" height="240"><defs><style type="text/css"></style></defs><path d="M511.909647 1007.284706C229.496471 1007.284706 0 781.040941 0 503.627294 0 226.243765 229.526588 0 511.909647 0c282.352941 0 511.879529 226.213647 511.879529 503.627294 0 277.413647-229.526588 503.657412-511.879529 503.657412z m0-974.245647c-264.222118 0-478.870588 211.335529-478.870588 470.588235s214.648471 470.618353 478.870588 470.618353c264.192 0 478.870588-211.365647 478.870588-470.618353s-214.678588-470.588235-478.870588-470.588235z m-132.126118 278.13647c18.160941 0 33.039059 12.047059 33.039059 26.774589v347.888941c0 14.727529-14.878118 26.774588-33.039059 26.774588s-33.008941-12.047059-33.008941-26.774588V337.950118c0-14.727529 14.848-26.774588 33.008941-26.774589z m247.68753 0c18.191059 0 33.039059 12.047059 33.039059 26.774589v347.888941c0 14.727529-14.848 26.774588-33.039059 26.774588-18.160941 0-33.008941-12.047059-33.008941-26.774588V337.950118c0-14.727529 14.848-26.774588 33.008941-26.774589z" p-id="2949"></path></svg>