<?xml version="1.0" standalone="no"?><!DOCTYPE svg PUBLIC "-//W3C//DTD SVG 1.1//EN" "http://www.w3.org/Graphics/SVG/1.1/DTD/svg11.dtd"><svg t="1545374859369" class="icon" style="" viewBox="0 0 1024 1024" version="1.1" xmlns="http://www.w3.org/2000/svg" p-id="2836" xmlns:xlink="http://www.w3.org/1999/xlink" width="240" height="240"><defs><style type="text/css"></style></defs><path d="M512 1008.941176C237.537882 1008.941176 15.058824 786.462118 15.058824 512S237.537882 15.058824 512 15.058824 1008.941176 237.537882 1008.941176 512 786.462118 1008.941176 512 1008.941176z m0-30.117647c257.807059 0 466.823529-209.016471 466.823529-466.823529 0-257.807059-209.016471-466.823529-466.823529-466.823529C254.192941 45.176471 45.176471 254.192941 45.176471 512c0 257.807059 209.016471 466.823529 466.823529 466.823529z m-51.862588-304.007529A38.4 38.4 0 0 1 421.647059 636.235294V399.962353c0-13.733647 7.318588-26.503529 19.245176-33.430588a38.701176 38.701176 0 0 1 38.550589 0l204.649411 118.151529a38.731294 38.731294 0 0 1 0 66.861177l-204.709647 118.061176a37.496471 37.496471 0 0 1-19.275294 5.180235z" p-id="2837"></path></svg>